<svg width="162" height="48" viewBox="0 0 162 48" fill="none" xmlns="http://www.w3.org/2000/svg">
<path d="M160.925 42.3333C160.925 42.9374 160.806 43.5356 160.575 44.0937C160.343 44.6518 160.004 45.1588 159.577 45.5858C159.149 46.0127 158.642 46.3512 158.083 46.582C157.525 46.8128 156.926 46.9312 156.322 46.9306H5.67789C4.45691 46.9318 3.28542 46.4482 2.42105 45.5861C1.55667 44.724 1.07019 43.554 1.0686 42.3333V5.67163C1.07019 4.45042 1.55648 3.27976 2.42068 2.41668C3.28488 1.55361 4.45636 1.06868 5.67789 1.06836H156.321C156.925 1.06836 157.524 1.18744 158.083 1.41879C158.641 1.65014 159.149 1.98923 159.576 2.4167C160.004 2.84417 160.343 3.35164 160.574 3.91012C160.805 4.46861 160.924 5.06717 160.924 5.67163L160.925 42.3333Z" fill="white"/>
<path d="M156.322 48H5.67787C4.17376 47.9997 2.73121 47.4029 1.66675 46.3405C0.602289 45.2781 0.0028619 43.8369 0 42.3332L0 5.67276C0.0022251 4.16831 0.601256 2.72617 1.66568 1.6627C2.73011 0.599227 4.17302 0.00126981 5.67787 0L156.321 0C157.825 0.00190342 159.268 0.600064 160.332 1.6634C161.397 2.72673 161.996 4.1685 161.999 5.67276V42.3332C162.001 45.4589 159.45 48 156.322 48Z" fill="#A6A6A6"/>
<path d="M160.925 42.3333C160.925 42.9374 160.806 43.5356 160.575 44.0937C160.343 44.6518 160.004 45.1588 159.577 45.5858C159.149 46.0127 158.642 46.3512 158.083 46.582C157.525 46.8128 156.926 46.9312 156.322 46.9306H5.67789C4.45691 46.9318 3.28542 46.4482 2.42105 45.5861C1.55667 44.724 1.07019 43.554 1.0686 42.3333V5.67163C1.07019 4.45042 1.55648 3.27976 2.42068 2.41668C3.28488 1.55361 4.45636 1.06868 5.67789 1.06836H156.321C156.925 1.06836 157.524 1.18744 158.083 1.41879C158.641 1.65014 159.149 1.98923 159.576 2.4167C160.004 2.84417 160.343 3.35164 160.574 3.91012C160.805 4.46861 160.924 5.06717 160.924 5.67163L160.925 42.3333Z" fill="black"/>
<path d="M36.1731 23.7478C36.1383 19.8791 39.3416 17.997 39.4881 17.9094C37.6739 15.265 34.862 14.9037 33.8738 14.8749C31.5122 14.6265 29.2213 16.2877 28.0183 16.2877C26.7912 16.2877 24.9386 14.8989 22.9419 14.9397C20.3725 14.9794 17.9688 16.4666 16.6505 18.776C13.9299 23.4849 15.959 30.4048 18.5656 34.211C19.8695 36.0764 21.3931 38.1565 23.3874 38.0833C25.3384 38.0041 26.0672 36.841 28.4217 36.841C30.7545 36.841 31.4389 38.0833 33.4728 38.0365C35.5667 38.0041 36.8851 36.164 38.1433 34.2831C39.6501 32.1477 40.2553 30.0423 40.2793 29.9343C40.2313 29.9175 36.2139 28.3834 36.1731 23.7478ZM32.331 12.371C33.3804 11.0591 34.0983 9.27419 33.899 7.46289C32.3802 7.53011 30.4808 8.51318 29.387 9.79633C28.4193 10.927 27.5548 12.7804 27.7781 14.5232C29.4843 14.6505 31.236 13.6626 32.331 12.371Z" fill="white"/>
<path d="M156.322 0H75.6324L107.237 48H156.322C157.826 47.9987 159.269 47.4011 160.333 46.3382C161.398 45.2752 161.997 43.8337 162 42.3296V5.67276C161.997 4.16841 161.398 2.72645 160.334 1.66305C159.269 0.599646 157.827 0.00158674 156.322 0Z" fill="url(#paint0_linear_444_11554)"/>
<path d="M64.4328 37.8149H61.7061L60.2125 33.1229H55.0209L53.5981 37.8149H50.9435L56.0883 21.841H59.2652L64.4328 37.8149ZM59.7622 31.1543L58.4115 26.9832C58.2686 26.5571 57.9997 25.5536 57.6059 23.9739H57.5579C57.3994 24.6533 57.146 25.6568 56.799 26.9832L55.4711 31.1543H59.7622ZM77.6375 31.9141C77.6375 33.8731 77.1056 35.4215 76.0406 36.5582C75.0873 37.5701 73.9023 38.0754 72.4891 38.0754C70.9631 38.0754 69.8657 37.5317 69.1993 36.4418V42.4854H66.6396V30.0824C66.6396 28.8521 66.6071 27.5905 66.5447 26.2966H68.7959L68.9388 28.1223H68.9868C69.8405 26.7467 71.136 26.0589 72.8745 26.0589C74.2337 26.0589 75.3683 26.5955 76.276 27.6698C77.1824 28.7465 77.6375 30.1604 77.6375 31.9141ZM75.0297 32.0078C75.0297 30.8866 74.7775 29.9624 74.2709 29.2338C73.7174 28.4764 72.9742 28.0971 72.0425 28.0971C71.4109 28.0971 70.837 28.3083 70.3243 28.7248C69.8105 29.145 69.4743 29.6935 69.317 30.3729C69.2468 30.627 69.2069 30.8885 69.1981 31.1519V33.0736C69.1981 33.9103 69.4551 34.6173 69.969 35.1958C70.4828 35.772 71.1504 36.0613 71.9716 36.0613C72.9358 36.0613 73.6862 35.688 74.2228 34.9474C74.7607 34.2044 75.0297 33.2249 75.0297 32.0078ZM90.889 31.9141C90.889 33.8731 90.3572 35.4215 89.2922 36.5582C88.3377 37.5701 87.1538 38.0754 85.7395 38.0754C84.2134 38.0754 83.116 37.5317 82.4497 36.4418V42.4854H79.8899V30.0824C79.8899 28.8521 79.8575 27.5905 79.7951 26.2966H82.0463L82.1891 28.1223H82.2372C83.0896 26.7467 84.3851 26.0589 86.1249 26.0589C87.4828 26.0589 88.6174 26.5955 89.5275 27.6698C90.4328 28.7465 90.889 30.1604 90.889 31.9141ZM88.28 32.0078C88.28 30.8866 88.0267 29.9624 87.52 29.2338C86.9665 28.4764 86.2257 28.0971 85.294 28.0971C84.6625 28.0971 84.0886 28.3083 83.5735 28.7248C83.0596 29.145 82.7246 29.6935 82.5673 30.3729C82.4893 30.6898 82.4473 30.9479 82.4473 31.1519V33.0736C82.4473 33.9103 82.7054 34.6173 83.2169 35.1958C83.7308 35.7708 84.3983 36.0613 85.222 36.0613C86.1873 36.0613 86.9377 35.688 87.4732 34.9474C88.0111 34.2044 88.28 33.2249 88.28 32.0078ZM105.705 33.3341C105.705 34.6941 105.23 35.7996 104.285 36.653C103.245 37.5845 101.793 38.0514 99.9323 38.0514C98.213 38.0514 96.8347 37.7201 95.7949 37.0563L96.3868 34.9234C97.5094 35.5883 98.7425 35.9196 100.085 35.9196C101.05 35.9196 101.801 35.7012 102.336 35.2678C102.873 34.8333 103.144 34.2524 103.144 33.5274C103.144 32.878 102.92 32.3342 102.479 31.8913C102.036 31.4496 101.303 31.0379 100.275 30.6598C97.477 29.6167 96.077 28.0911 96.077 26.0841C96.077 24.7734 96.5717 23.7003 97.5586 22.8612C98.5456 22.0234 99.8543 21.6045 101.482 21.6045C102.936 21.6045 104.148 21.8578 105.11 22.3631L104.467 24.4493C103.562 23.9595 102.54 23.7147 101.397 23.7147C100.494 23.7147 99.7859 23.9367 99.2792 24.3785C98.8529 24.7734 98.6368 25.2547 98.6368 25.8261C98.6368 26.4562 98.883 26.9796 99.3728 27.3901C99.7978 27.7682 100.573 28.1799 101.695 28.6216C103.071 29.1762 104.082 29.8219 104.729 30.5638C105.381 31.3056 105.705 32.231 105.705 33.3341ZM114.19 28.2171H111.368V33.8094C111.368 35.2318 111.866 35.9412 112.862 35.9412C113.32 35.9412 113.699 35.9028 113.999 35.8224L114.07 37.7657C113.566 37.9542 112.902 38.049 112.079 38.049C111.068 38.049 110.278 37.7405 109.708 37.1236C109.14 36.5066 108.854 35.4731 108.854 34.0183V28.2123H107.173V26.2918H108.854V24.1828L111.368 23.4242V26.2918H114.19V28.2171ZM126.895 31.9609C126.895 33.7314 126.389 35.185 125.378 36.3217C124.32 37.4921 122.913 38.0754 121.159 38.0754C119.466 38.0754 118.12 37.5149 117.116 36.395C116.112 35.2726 115.61 33.8587 115.61 32.153C115.61 30.3681 116.129 28.9061 117.163 27.7694C118.199 26.6315 119.594 26.0625 121.348 26.0625C123.039 26.0625 124.397 26.6243 125.424 27.7454C126.407 28.8329 126.895 30.2373 126.895 31.9609ZM124.242 32.0198C124.242 30.9647 124.014 30.0596 123.556 29.3022C123.02 28.3876 122.251 27.9302 121.256 27.9302C120.23 27.9302 119.444 28.3876 118.909 29.3022C118.45 30.0596 118.222 30.9803 118.222 32.0678C118.222 33.1241 118.45 34.0315 118.909 34.7865C119.462 35.7012 120.234 36.1585 121.234 36.1585C122.213 36.1585 122.98 35.6916 123.535 34.7637C124.005 33.9883 124.242 33.0772 124.242 32.0198ZM135.219 28.5472C134.953 28.4991 134.683 28.4754 134.413 28.4764C133.512 28.4764 132.816 28.8149 132.326 29.4967C131.901 30.0968 131.687 30.8554 131.687 31.7713V37.8149H129.127V29.924C129.13 28.7148 129.105 27.5058 129.053 26.2978H131.282L131.376 28.5016H131.447C131.718 27.7442 132.143 27.1332 132.727 26.6759C133.261 26.2763 133.91 26.0599 134.577 26.0589C134.814 26.0589 135.027 26.0757 135.217 26.1057L135.219 28.5472ZM146.668 31.5108C146.674 31.8998 146.643 32.2886 146.574 32.6715H138.895C138.923 33.8094 139.296 34.6809 140.009 35.2811C140.656 35.8164 141.493 36.0853 142.521 36.0853C143.658 36.0853 144.695 35.9052 145.628 35.5415L146.029 37.3168C144.939 37.7921 143.652 38.0286 142.166 38.0286C140.38 38.0286 138.977 37.5029 137.957 36.4538C136.939 35.4035 136.428 33.9919 136.428 32.2238C136.428 30.4881 136.903 29.0417 137.852 27.8882C138.847 26.6567 140.19 26.0409 141.881 26.0409C143.541 26.0409 144.798 26.6567 145.652 27.8882C146.328 28.8641 146.668 30.074 146.668 31.5108ZM144.227 30.847C144.245 30.0872 144.077 29.433 143.73 28.8797C143.287 28.1667 142.605 27.8114 141.691 27.8114C140.854 27.8114 140.172 28.1583 139.653 28.8545C139.227 29.4078 138.974 30.0728 138.896 30.8446L144.227 30.847Z" fill="white"/>
<path d="M54.2825 16.1941C53.5705 16.1941 52.9546 16.1593 52.4419 16.1005V8.37755C53.1589 8.26682 53.8835 8.21223 54.6091 8.21431C57.5446 8.21431 58.8966 9.6583 58.8966 12.0122C58.8966 14.7273 57.2997 16.1941 54.2825 16.1941ZM54.7123 9.20458C54.3161 9.20458 53.9787 9.22859 53.699 9.2862V15.157C53.8503 15.181 54.1408 15.1918 54.549 15.1918C56.4725 15.1918 57.5675 14.0971 57.5675 12.047C57.5675 10.2189 56.5769 9.20458 54.7123 9.20458ZM63.1096 16.2529C61.4552 16.2529 60.383 15.0178 60.383 13.3409C60.383 11.5932 61.478 10.3473 63.2033 10.3473C64.8338 10.3473 65.93 11.5236 65.93 13.2485C65.93 15.0178 64.8002 16.2529 63.1096 16.2529ZM63.1577 11.2667C62.2488 11.2667 61.6665 12.1166 61.6665 13.3049C61.6665 14.4704 62.2608 15.3203 63.1457 15.3203C64.0305 15.3203 64.6249 14.4116 64.6249 13.2809C64.6249 12.1286 64.0426 11.2667 63.1577 11.2667ZM75.3647 10.4637L73.5937 16.1245H72.4399L71.7063 13.6662C71.5239 13.0649 71.372 12.4547 71.2512 11.8381H71.2272C71.1348 12.4551 70.9595 13.0732 70.7734 13.6662L69.993 16.1245H68.8271L67.1606 10.4637H68.4537L69.0949 13.1549C69.2462 13.7958 69.3734 14.4008 69.4791 14.9722H69.5031C69.5956 14.4956 69.7468 13.9003 69.969 13.1669L70.7734 10.4649H71.7987L72.5684 13.1093C72.7545 13.7502 72.9057 14.3792 73.0234 14.9734H73.057C73.1387 14.3912 73.2671 13.773 73.4412 13.1093L74.1292 10.4649L75.3647 10.4637ZM81.8842 16.1245H80.6259V12.874C80.6259 11.8729 80.2417 11.3712 79.4841 11.3712C78.7385 11.3712 78.2258 12.0122 78.2258 12.7576V16.1245H76.9675V12.0818C76.9675 11.5812 76.9555 11.0447 76.9207 10.4625H78.0277L78.0865 11.3364H78.1214C78.4599 10.7314 79.1467 10.3473 79.9163 10.3473C81.105 10.3473 81.8854 11.2559 81.8854 12.7348L81.8842 16.1245ZM85.354 16.1245H84.0946V7.86621H85.354V16.1245ZM89.9417 16.2529C88.2884 16.2529 87.2151 15.0178 87.2151 13.3409C87.2151 11.5932 88.31 10.3473 90.0342 10.3473C91.6659 10.3473 92.7609 11.5236 92.7609 13.2485C92.7621 15.0178 91.631 16.2529 89.9417 16.2529ZM89.9886 11.2667C89.0797 11.2667 88.4974 12.1166 88.4974 13.3049C88.4974 14.4704 89.0929 15.3203 89.9754 15.3203C90.8614 15.3203 91.4545 14.4116 91.4545 13.2809C91.4557 12.1286 90.8746 11.2667 89.9886 11.2667ZM97.7219 16.1245L97.6307 15.4727H97.5971C97.2129 15.9972 96.6521 16.2529 95.9414 16.2529C94.9268 16.2529 94.2064 15.5423 94.2064 14.5869C94.2064 13.1897 95.4179 12.4671 97.5154 12.4671V12.3626C97.5154 11.6172 97.1204 11.2439 96.34 11.2439C95.7817 11.2439 95.2918 11.3844 94.8608 11.6641L94.605 10.837C95.1285 10.5105 95.7817 10.3473 96.5489 10.3473C98.0281 10.3473 98.7749 11.1275 98.7749 12.6891V14.7741C98.7749 15.3455 98.8001 15.7884 98.8565 16.1257L97.7219 16.1245ZM97.549 13.3049C96.1515 13.3049 95.4503 13.6434 95.4503 14.4464C95.4503 15.0406 95.8117 15.3311 96.3136 15.3311C96.9535 15.3311 97.549 14.8425 97.549 14.1787V13.3049ZM104.885 16.1245L104.826 15.2158H104.791C104.43 15.9024 103.822 16.2529 102.974 16.2529C101.608 16.2529 100.597 15.0526 100.597 13.3637C100.597 11.5932 101.646 10.3461 103.077 10.3461C103.834 10.3461 104.371 10.6018 104.674 11.1155H104.699V7.86621H105.958V14.5989C105.958 15.1462 105.972 15.6588 106.005 16.1245H104.885ZM104.699 12.7936C104.699 12.0013 104.174 11.3256 103.373 11.3256C102.44 11.3256 101.87 12.1526 101.87 13.3169C101.87 14.4584 102.462 15.2398 103.348 15.2398C104.139 15.2398 104.699 14.5521 104.699 13.737V12.7936ZM113.944 16.2529C112.291 16.2529 111.218 15.0178 111.218 13.3409C111.218 11.5932 112.313 10.3473 114.038 10.3473C115.669 10.3473 116.764 11.5236 116.764 13.2485C116.765 15.0178 115.636 16.2529 113.944 16.2529ZM113.991 11.2667C113.083 11.2667 112.501 12.1166 112.501 13.3049C112.501 14.4704 113.095 15.3203 113.979 15.3203C114.865 15.3203 115.458 14.4116 115.458 13.2809C115.46 12.1286 114.878 11.2667 113.991 11.2667ZM123.531 16.1245H122.272V12.874C122.272 11.8729 121.887 11.3712 121.13 11.3712C120.384 11.3712 119.873 12.0122 119.873 12.7576V16.1245H118.613V12.0818C118.613 11.5812 118.601 11.0447 118.566 10.4625H119.673L119.732 11.3364H119.767C120.104 10.7314 120.792 10.3461 121.561 10.3461C122.749 10.3461 123.531 11.2547 123.531 12.7335V16.1245ZM131.997 11.4072H130.612V14.1559C130.612 14.8557 130.855 15.205 131.345 15.205C131.567 15.205 131.753 15.181 131.903 15.1462L131.938 16.1017C131.694 16.1953 131.368 16.2421 130.962 16.2421C129.97 16.2421 129.377 15.6948 129.377 14.2616V11.4072H128.551V10.4637H129.377V9.42664L130.612 9.05334V10.4625H131.997V11.4072ZM138.658 16.1245H137.401V12.898C137.401 11.8849 137.018 11.3724 136.259 11.3724C135.607 11.3724 135 11.8153 135 12.7119V16.1245H133.743V7.86621H135V11.2667H135.025C135.421 10.6498 135.995 10.3461 136.727 10.3461C137.926 10.3461 138.658 11.2775 138.658 12.7576V16.1245ZM145.482 13.5966H141.706C141.73 14.6685 142.44 15.2734 143.491 15.2734C144.049 15.2734 144.563 15.1798 145.017 15.0058L145.212 15.8796C144.677 16.1125 144.047 16.2289 143.313 16.2289C141.542 16.2289 140.494 15.1102 140.494 13.3757C140.494 11.64 141.567 10.3353 143.171 10.3353C144.618 10.3353 145.526 11.4072 145.526 13.0264C145.534 13.2175 145.519 13.4089 145.482 13.5966ZM144.329 12.6999C144.329 11.8261 143.888 11.2091 143.084 11.2091C142.361 11.2091 141.789 11.8381 141.708 12.6999H144.329Z" fill="white"/>
<defs>
<linearGradient id="paint0_linear_444_11554" x1="118.815" y1="48.1274" x2="118.815" y2="-124.984" gradientUnits="userSpaceOnUse">
<stop stop-color="#1A1A1A" stop-opacity="0.1"/>
<stop offset="0.123" stop-color="#212121" stop-opacity="0.151"/>
<stop offset="0.308" stop-color="#353535" stop-opacity="0.227"/>
<stop offset="0.532" stop-color="#575757" stop-opacity="0.318"/>
<stop offset="0.783" stop-color="#858585" stop-opacity="0.421"/>
<stop offset="1" stop-color="#B3B3B3" stop-opacity="0.51"/>
</linearGradient>
</defs>
</svg>
