<svg width="24" height="24" viewBox="0 0 24 24" fill="none" xmlns="http://www.w3.org/2000/svg">
<path d="M12.5535 16.2561C12.4114 16.4115 12.2106 16.5 12 16.5C11.7894 16.5 11.5886 16.4115 11.4465 16.2561L7.44648 11.8811C7.16698 11.5754 7.18822 11.101 7.49392 10.8215C7.79963 10.542 8.27402 10.5632 8.55352 10.8689L11.25 13.8182V2.75C11.25 2.33579 11.5858 2 12 2C12.4142 2 12.75 2.33579 12.75 2.75V13.8182L15.4465 10.8689C15.726 10.5632 16.2004 10.542 16.5061 10.8215C16.8118 11.101 16.833 11.5754 16.5535 11.8811L12.5535 16.2561Z" fill="white"/>
<path d="M3.75 14.75C3.75 14.3358 3.41422 14 3 14C2.58579 14 2.25 14.3358 2.25 14.75V14.8049C2.24998 16.1725 2.24996 17.2748 2.36652 18.1418C2.48754 19.0419 2.74643 19.7997 3.34835 20.4016C3.95027 21.0036 4.70814 21.2625 5.60825 21.3835C6.47522 21.5 7.57754 21.5 8.94513 21.5H15.0549C16.4225 21.5 17.5248 21.5 18.3918 21.3835C19.2919 21.2625 20.0497 21.0036 20.6517 20.4016C21.2536 19.7997 21.5125 19.0419 21.6335 18.1418C21.75 17.2748 21.75 16.1725 21.75 14.8049V14.75C21.75 14.3358 21.4142 14 21 14C20.5858 14 20.25 14.3358 20.25 14.75C20.25 16.1854 20.2484 17.1865 20.1469 17.9419C20.0482 18.6757 19.8678 19.0642 19.591 19.341C19.3142 19.6178 18.9257 19.7982 18.1919 19.8969C17.4365 19.9984 16.4354 20 15 20H9C7.56459 20 6.56347 19.9984 5.80812 19.8969C5.07435 19.7982 4.68577 19.6178 4.40901 19.341C4.13225 19.0642 3.9518 18.6757 3.85315 17.9419C3.75159 17.1865 3.75 16.1854 3.75 14.75Z" fill="white"/>
</svg>
