<svg width="40" height="40" viewBox="0 0 40 40" fill="none" xmlns="http://www.w3.org/2000/svg">
<path d="M19.9999 3.33313C17.8112 3.33313 15.644 3.76423 13.6219 4.6018C11.5998 5.43938 9.76245 6.66704 8.21481 8.21468C5.0892 11.3403 3.33325 15.5795 3.33325 19.9998C3.33325 27.3665 8.11659 33.6165 14.7333 35.8331C15.5666 35.9665 15.8333 35.4498 15.8333 34.9998V32.1831C11.2166 33.1831 10.2333 29.9498 10.2333 29.9498C9.46658 28.0165 8.38325 27.4998 8.38325 27.4998C6.86659 26.4665 8.49992 26.4998 8.49992 26.4998C10.1666 26.6165 11.0499 28.2165 11.0499 28.2165C12.4999 30.7498 14.9499 29.9998 15.8999 29.5998C16.0499 28.5165 16.4833 27.7831 16.9499 27.3665C13.2499 26.9498 9.36658 25.5165 9.36658 19.1665C9.36658 17.3165 9.99992 15.8331 11.0833 14.6498C10.9166 14.2331 10.3333 12.4998 11.2499 10.2498C11.2499 10.2498 12.6499 9.7998 15.8333 11.9498C17.1499 11.5831 18.5833 11.3998 19.9999 11.3998C21.4166 11.3998 22.8499 11.5831 24.1666 11.9498C27.3499 9.7998 28.7499 10.2498 28.7499 10.2498C29.6666 12.4998 29.0833 14.2331 28.9166 14.6498C29.9999 15.8331 30.6332 17.3165 30.6332 19.1665C30.6332 25.5331 26.7333 26.9331 23.0166 27.3498C23.6166 27.8665 24.1666 28.8831 24.1666 30.4331V34.9998C24.1666 35.4498 24.4333 35.9831 25.2833 35.8331C31.8999 33.5998 36.6666 27.3665 36.6666 19.9998C36.6666 17.8111 36.2355 15.6438 35.3979 13.6217C34.5603 11.5996 33.3327 9.76233 31.785 8.21468C30.2374 6.66704 28.4001 5.43938 26.378 4.6018C24.3559 3.76423 22.1886 3.33313 19.9999 3.33313Z" fill="#131B2A"/>
</svg>
