<svg width="162" height="48" viewBox="0 0 162 48" fill="none" xmlns="http://www.w3.org/2000/svg">
<path d="M156 48H6C2.64 48 0 45.36 0 42V6C0 2.64 2.64 0 6 0H156C159.36 0 162 2.64 162 6V42C162 45.36 159.36 48 156 48Z" fill="black"/>
<path d="M156 0.96C158.76 0.96 161.04 3.24 161.04 6V42C161.04 44.76 158.76 47.04 156 47.04H6C3.24 47.04 0.96 44.76 0.96 42V6C0.96 3.24 3.24 0.96 6 0.96H156ZM156 0H6C2.64 0 0 2.76 0 6V42C0 45.36 2.64 48 6 48H156C159.36 48 162 45.36 162 42V6C162 2.76 159.36 0 156 0Z" fill="#A6A6A6"/>
<path d="M56.8801 12.2403C56.8801 13.2003 56.6401 14.0403 56.0401 14.6403C55.3201 15.3603 54.4801 15.7203 53.4001 15.7203C52.3201 15.7203 51.4801 15.3603 50.7601 14.6403C50.0401 13.9203 49.6801 13.0803 49.6801 12.0003C49.6801 10.9203 50.0401 10.0803 50.7601 9.36027C51.4801 8.64027 52.3201 8.28027 53.4001 8.28027C53.8801 8.28027 54.3601 8.40027 54.8401 8.64027C55.3201 8.88027 55.68 9.12027 55.92 9.48027L55.32 10.0803C54.84 9.48027 54.2401 9.24027 53.4001 9.24027C52.6801 9.24027 51.9601 9.48027 51.4801 10.0803C50.8801 10.5603 50.6401 11.2803 50.6401 12.1203C50.6401 12.9603 50.8801 13.6803 51.4801 14.1603C52.0801 14.6403 52.6801 15.0003 53.4001 15.0003C54.2401 15.0003 54.8401 14.7603 55.4401 14.1603C55.8001 13.8003 56.0401 13.3203 56.0401 12.7203H53.4001V11.7603H56.8801V12.2403ZM62.4001 9.24027H59.1601V11.5203H62.1601V12.3603H59.1601V14.6403H62.4001V15.6003H58.2001V8.40027H62.4001V9.24027ZM66.3601 15.6003H65.4001V9.24027H63.3601V8.40027H68.4001V9.24027H66.3601V15.6003ZM71.8801 15.6003V8.40027H72.8401V15.6003H71.8801ZM76.92 15.6003H75.96V9.24027H73.92V8.40027H78.84V9.24027H76.8001V15.6003H76.92ZM88.32 14.6403C87.6 15.3603 86.7601 15.7203 85.68 15.7203C84.6001 15.7203 83.76 15.3603 83.04 14.6403C82.32 13.9203 81.9601 13.0803 81.9601 12.0003C81.9601 10.9203 82.32 10.0803 83.04 9.36027C83.76 8.64027 84.6001 8.28027 85.68 8.28027C86.7601 8.28027 87.6 8.64027 88.32 9.36027C89.04 10.0803 89.4001 10.9203 89.4001 12.0003C89.4001 13.0803 89.04 13.9203 88.32 14.6403ZM83.7601 14.0403C84.2401 14.5203 84.9601 14.8803 85.68 14.8803C86.4001 14.8803 87.12 14.6403 87.6 14.0403C88.0801 13.5603 88.44 12.8403 88.44 12.0003C88.44 11.1603 88.2001 10.4403 87.6 9.96027C87.12 9.48027 86.4001 9.12027 85.68 9.12027C84.9601 9.12027 84.2401 9.36027 83.7601 9.96027C83.2801 10.4403 82.92 11.1603 82.92 12.0003C82.92 12.8403 83.1601 13.5603 83.7601 14.0403ZM90.72 15.6003V8.40027H91.8L95.2801 14.0403V8.40027H96.24V15.6003H95.2801L91.5601 9.72027V15.6003H90.72Z" fill="white" stroke="white" stroke-width="0.24" stroke-miterlimit="10"/>
<path d="M81.7199 26.1595C78.8399 26.1595 76.5599 28.3195 76.5599 31.3195C76.5599 34.1995 78.8399 36.4795 81.7199 36.4795C84.5999 36.4795 86.8799 34.3195 86.8799 31.3195C86.8799 28.1995 84.5999 26.1595 81.7199 26.1595ZM81.7199 34.3195C80.1599 34.3195 78.8399 32.9995 78.8399 31.1995C78.8399 29.3995 80.1599 28.0795 81.7199 28.0795C83.2799 28.0795 84.5999 29.2795 84.5999 31.1995C84.5999 32.9995 83.2799 34.3195 81.7199 34.3195ZM70.5599 26.1595C67.6799 26.1595 65.3999 28.3195 65.3999 31.3195C65.3999 34.1995 67.6799 36.4795 70.5599 36.4795C73.4399 36.4795 75.7199 34.3195 75.7199 31.3195C75.7199 28.1995 73.4399 26.1595 70.5599 26.1595ZM70.5599 34.3195C68.9999 34.3195 67.6799 32.9995 67.6799 31.1995C67.6799 29.3995 68.9999 28.0795 70.5599 28.0795C72.1199 28.0795 73.4399 29.2795 73.4399 31.1995C73.4399 32.9995 72.1199 34.3195 70.5599 34.3195ZM57.2399 27.7195V29.8795H62.3999C62.2799 31.0795 61.7999 32.0395 61.1999 32.6395C60.4799 33.3595 59.2799 34.1995 57.2399 34.1995C53.9999 34.1995 51.5999 31.6795 51.5999 28.4395C51.5999 25.1995 54.1199 22.6795 57.2399 22.6795C58.9199 22.6795 60.2399 23.3995 61.1999 24.2395L62.7599 22.6795C61.4399 21.4795 59.7599 20.5195 57.3599 20.5195C53.0399 20.5195 49.3199 24.1195 49.3199 28.4395C49.3199 32.7595 53.0399 36.3595 57.3599 36.3595C59.7599 36.3595 61.4399 35.6395 62.8799 34.0795C64.3199 32.6395 64.7999 30.5995 64.7999 29.0395C64.7999 28.5595 64.7999 28.0795 64.6799 27.7195H57.2399ZM111.72 29.3995C111.24 28.1995 110.04 26.1595 107.4 26.1595C104.76 26.1595 102.6 28.1995 102.6 31.3195C102.6 34.1995 104.76 36.4795 107.64 36.4795C109.92 36.4795 111.36 35.0395 111.84 34.1995L110.16 32.9995C109.56 33.8395 108.84 34.4395 107.64 34.4395C106.44 34.4395 105.72 33.9595 105.12 32.8795L111.96 29.9995L111.72 29.3995ZM104.76 31.0795C104.76 29.1595 106.32 28.0795 107.4 28.0795C108.24 28.0795 109.08 28.5595 109.32 29.1595L104.76 31.0795ZM99.1199 35.9995H101.4V20.9995H99.1199V35.9995ZM95.5199 27.2395C94.9199 26.6395 93.9599 26.0395 92.7599 26.0395C90.2399 26.0395 87.8399 28.3195 87.8399 31.1995C87.8399 34.0795 90.1199 36.2395 92.7599 36.2395C93.9599 36.2395 94.9199 35.6395 95.3999 35.0395H95.5199V35.7595C95.5199 37.6795 94.4399 38.7595 92.7599 38.7595C91.4399 38.7595 90.4799 37.7995 90.2399 36.9595L88.3199 37.7995C88.9199 39.1195 90.3599 40.7995 92.8799 40.7995C95.5199 40.7995 97.6799 39.2395 97.6799 35.5195V26.3995H95.5199V27.2395ZM92.8799 34.3195C91.3199 34.3195 89.9999 32.9995 89.9999 31.1995C89.9999 29.3995 91.3199 28.0795 92.8799 28.0795C94.4399 28.0795 95.6399 29.3995 95.6399 31.1995C95.6399 32.9995 94.4399 34.3195 92.8799 34.3195ZM122.16 20.9995H116.76V35.9995H119.04V30.3595H122.16C124.68 30.3595 127.08 28.5595 127.08 25.6795C127.08 22.7995 124.68 20.9995 122.16 20.9995ZM122.28 28.1995H119.04V23.0395H122.28C123.96 23.0395 124.92 24.4795 124.92 25.5595C124.8 26.8795 123.84 28.1995 122.28 28.1995ZM136.08 26.0395C134.4 26.0395 132.72 26.7595 132.12 28.3195L134.16 29.1595C134.64 28.3195 135.36 28.0795 136.2 28.0795C137.4 28.0795 138.48 28.7995 138.6 29.9995V30.1195C138.24 29.8795 137.28 29.5195 136.32 29.5195C134.16 29.5195 132 30.7195 132 32.8795C132 34.9195 133.8 36.2395 135.72 36.2395C137.28 36.2395 138 35.5195 138.6 34.7995H138.72V35.9995H140.88V30.2395C140.64 27.5995 138.6 26.0395 136.08 26.0395ZM135.84 34.3195C135.12 34.3195 134.04 33.9595 134.04 32.9995C134.04 31.7995 135.36 31.4395 136.44 31.4395C137.4 31.4395 137.88 31.6795 138.48 31.9195C138.24 33.3595 137.04 34.3195 135.84 34.3195ZM148.44 26.3995L145.92 32.8795H145.8L143.16 26.3995H140.76L144.72 35.5195L142.44 40.5595H144.72L150.84 26.3995H148.44ZM128.28 35.9995H130.56V20.9995H128.28V35.9995Z" fill="white"/>
<path d="M12.48 9C12.12 9.36 12 9.96 12 10.68V37.2C12 37.92 12.24 38.52 12.6 38.88L12.72 39L27.6 24.12V23.88L12.48 9Z" fill="url(#paint0_linear_444_11541)"/>
<path d="M32.4 29.16L27.48 24.24V23.88L32.4 18.96L32.52 19.08L38.4 22.44C40.08 23.4 40.08 24.96 38.4 25.92L32.4 29.16Z" fill="url(#paint1_linear_444_11541)"/>
<path d="M32.52 29.04L27.48 24L12.48 39C13.08 39.6 13.92 39.6 15 39.12L32.52 29.04Z" fill="url(#paint2_linear_444_11541)"/>
<path d="M32.52 18.9599L15 8.99994C13.92 8.39994 13.08 8.51994 12.48 9.11994L27.48 23.9999L32.52 18.9599Z" fill="url(#paint3_linear_444_11541)"/>
<path opacity="0.2" d="M32.4 28.9199L15 38.7599C14.04 39.3599 13.2 39.2399 12.6 38.7599L12.48 38.8799L12.6 38.9999C13.2 39.4799 14.04 39.5999 15 38.9999L32.4 28.9199Z" fill="black"/>
<path opacity="0.12" d="M12.48 38.76C12.12 38.4 12 37.8 12 37.08V37.2C12 37.92 12.24 38.52 12.6 38.88V38.76H12.48ZM38.4 25.56L32.4 28.92L32.52 29.04L38.4 25.68C39.24 25.2 39.6 24.6 39.6 24C39.6 24.6 39.12 25.08 38.4 25.56Z" fill="black"/>
<path opacity="0.25" d="M15 9.11954L38.4 22.4395C39.12 22.9195 39.6 23.3995 39.6 23.9995C39.6 23.3995 39.24 22.7995 38.4 22.3195L15 8.99954C13.32 8.03954 12 8.75954 12 10.6795V10.7995C12 8.99954 13.32 8.15954 15 9.11954Z" fill="white"/>
<defs>
<linearGradient id="paint0_linear_444_11541" x1="26.16" y1="10.452" x2="6.0204" y2="30.5904" gradientUnits="userSpaceOnUse">
<stop stop-color="#00A0FF"/>
<stop offset="0.007" stop-color="#00A1FF"/>
<stop offset="0.26" stop-color="#00BEFF"/>
<stop offset="0.512" stop-color="#00D2FF"/>
<stop offset="0.76" stop-color="#00DFFF"/>
<stop offset="1" stop-color="#00E3FF"/>
</linearGradient>
<linearGradient id="paint1_linear_444_11541" x1="40.6008" y1="24.0012" x2="11.5644" y2="24.0012" gradientUnits="userSpaceOnUse">
<stop stop-color="#FFE000"/>
<stop offset="0.409" stop-color="#FFBD00"/>
<stop offset="0.775" stop-color="#FFA500"/>
<stop offset="1" stop-color="#FF9C00"/>
</linearGradient>
<linearGradient id="paint2_linear_444_11541" x1="29.7924" y1="26.7552" x2="2.48278" y2="54.0648" gradientUnits="userSpaceOnUse">
<stop stop-color="#FF3A44"/>
<stop offset="1" stop-color="#C31162"/>
</linearGradient>
<linearGradient id="paint3_linear_444_11541" x1="8.75638" y1="0.211139" x2="20.952" y2="12.4067" gradientUnits="userSpaceOnUse">
<stop stop-color="#32A071"/>
<stop offset="0.069" stop-color="#2DA771"/>
<stop offset="0.476" stop-color="#15CF74"/>
<stop offset="0.801" stop-color="#06E775"/>
<stop offset="1" stop-color="#00F076"/>
</linearGradient>
</defs>
</svg>
