<?xml version="1.0" encoding="UTF-8" standalone="no"?>
<!DOCTYPE svg PUBLIC "-//W3C//DTD SVG 1.1//EN" "http://www.w3.org/Graphics/SVG/1.1/DTD/svg11.dtd">
<svg width="100%" height="100%" viewBox="0 0 149 32" version="1.1" xmlns="http://www.w3.org/2000/svg" xmlns:xlink="http://www.w3.org/1999/xlink" xml:space="preserve" xmlns:serif="http://www.serif.com/" style="fill-rule:evenodd;clip-rule:evenodd;stroke-linejoin:round;stroke-miterlimit:2;">
    <g transform="matrix(1,0,0,1,-0.867126,-0.133789)">
        <path d="M22.685,1.229C19.684,0.058 16.4,-0.181 13.262,0.545C10.124,1.271 7.278,2.927 5.096,5.297C2.914,7.667 1.499,10.64 1.034,13.827C0.57,17.014 1.078,20.268 2.493,23.161C3.908,26.055 6.163,28.454 8.964,30.045C11.764,31.637 14.98,32.345 18.19,32.079L19.523,31.968L19.523,28.01L17.864,28.147C15.445,28.348 13.023,27.814 10.913,26.615C8.802,25.416 7.103,23.609 6.037,21.429C4.971,19.248 4.588,16.797 4.938,14.396C5.288,11.994 6.355,9.754 7.998,7.969C9.642,6.184 11.786,4.936 14.151,4.389C16.515,3.842 18.99,4.022 21.25,4.904C23.511,5.787 25.453,7.331 26.822,9.335C28.19,11.339 28.922,13.709 28.922,16.136L28.922,18.109L28.922,18.109L28.922,22.333C28.922,23.362 28.088,24.196 27.059,24.196C26.03,24.196 25.196,23.362 25.196,22.333L25.196,16.024L25.195,16.024C25.137,11.475 21.43,7.805 16.867,7.805C12.267,7.805 8.538,11.534 8.538,16.134C8.538,20.734 12.267,24.462 16.867,24.462C18.501,24.462 20.026,23.992 21.312,23.179C21.721,25.985 24.138,28.141 27.059,28.141C30.267,28.141 32.867,25.541 32.867,22.333L32.867,16.024L32.867,16.024C32.845,12.842 31.875,9.738 30.079,7.11C28.263,4.45 25.685,2.4 22.685,1.229ZM18.068,16.402C18.823,15.978 19.334,15.17 19.334,14.243C19.334,12.877 18.227,11.77 16.861,11.77C15.495,11.77 14.388,12.877 14.388,14.243C14.388,15.16 14.887,15.961 15.629,16.387L14.119,20.497L19.573,20.497L18.068,16.402Z" style="fill:rgb(30,118,242);"/>
    </g>
    <g transform="matrix(1,0,0,1,-0.867126,-0.133789)">
        <path d="M46.802,24.347C45.749,24.347 44.775,24.155 43.879,23.771C42.997,23.387 42.222,22.854 41.554,22.171C40.9,21.474 40.388,20.663 40.018,19.739C39.662,18.8 39.484,17.776 39.484,16.667C39.484,15.557 39.662,14.541 40.018,13.616C40.388,12.678 40.9,11.867 41.554,11.184C42.222,10.487 42.997,9.947 43.879,9.563C44.775,9.179 45.749,8.987 46.802,8.987C47.854,8.987 48.821,9.179 49.703,9.563C50.599,9.947 51.374,10.487 52.028,11.184C52.697,11.881 53.209,12.699 53.564,13.637C53.934,14.562 54.119,15.572 54.119,16.667C54.119,17.762 53.934,18.779 53.564,19.718C53.209,20.642 52.697,21.453 52.028,22.15C51.374,22.846 50.599,23.387 49.703,23.771C48.821,24.155 47.854,24.347 46.802,24.347ZM46.802,22.107C47.527,22.107 48.188,21.972 48.786,21.702C49.397,21.431 49.923,21.054 50.364,20.571C50.805,20.073 51.147,19.497 51.388,18.843C51.644,18.174 51.772,17.449 51.772,16.667C51.772,15.885 51.644,15.166 51.388,14.512C51.147,13.844 50.805,13.268 50.364,12.784C49.923,12.286 49.397,11.902 48.786,11.632C48.188,11.362 47.527,11.227 46.802,11.227C46.076,11.227 45.408,11.362 44.796,11.632C44.199,11.902 43.673,12.279 43.218,12.763C42.777,13.246 42.436,13.822 42.194,14.491C41.952,15.145 41.831,15.87 41.831,16.667C41.831,17.449 41.952,18.174 42.194,18.843C42.436,19.511 42.777,20.087 43.218,20.571C43.673,21.054 44.199,21.431 44.796,21.702C45.408,21.972 46.076,22.107 46.802,22.107ZM56.684,28.827L56.684,12.934L58.903,12.934L58.903,15.493L58.561,15.302C58.647,14.875 58.888,14.47 59.286,14.086C59.685,13.687 60.168,13.367 60.737,13.126C61.32,12.87 61.918,12.742 62.529,12.742C63.539,12.742 64.435,12.99 65.217,13.488C65.999,13.986 66.618,14.669 67.073,15.536C67.528,16.404 67.756,17.399 67.756,18.523C67.756,19.632 67.528,20.628 67.073,21.51C66.632,22.377 66.021,23.067 65.239,23.579C64.456,24.077 63.575,24.326 62.593,24.326C61.939,24.326 61.306,24.198 60.695,23.942C60.083,23.671 59.564,23.33 59.137,22.918C58.711,22.505 58.447,22.078 58.348,21.638L58.903,21.339L58.903,28.827L56.684,28.827ZM62.231,22.299C62.885,22.299 63.468,22.135 63.98,21.808C64.492,21.481 64.897,21.033 65.196,20.464C65.495,19.895 65.644,19.248 65.644,18.523C65.644,17.798 65.495,17.158 65.196,16.603C64.911,16.034 64.513,15.586 64.001,15.259C63.489,14.932 62.899,14.768 62.231,14.768C61.562,14.768 60.972,14.932 60.46,15.259C59.948,15.572 59.542,16.013 59.244,16.581C58.945,17.15 58.796,17.798 58.796,18.523C58.796,19.248 58.945,19.895 59.244,20.464C59.542,21.033 59.948,21.481 60.46,21.808C60.972,22.135 61.562,22.299 62.231,22.299ZM75.369,24.347C74.217,24.347 73.193,24.105 72.297,23.622C71.415,23.124 70.718,22.448 70.206,21.595C69.708,20.741 69.46,19.76 69.46,18.651C69.46,17.769 69.602,16.966 69.886,16.24C70.171,15.515 70.562,14.889 71.06,14.363C71.572,13.822 72.176,13.41 72.873,13.126C73.584,12.827 74.352,12.678 75.177,12.678C75.902,12.678 76.578,12.82 77.204,13.104C77.829,13.374 78.37,13.751 78.825,14.235C79.294,14.718 79.65,15.294 79.891,15.963C80.147,16.617 80.268,17.335 80.254,18.118L80.233,19.056L71.081,19.056L70.59,17.307L78.334,17.307L78.014,17.67L78.014,17.158C77.972,16.688 77.815,16.269 77.545,15.899C77.275,15.529 76.933,15.238 76.521,15.024C76.108,14.811 75.66,14.704 75.177,14.704C74.409,14.704 73.762,14.854 73.236,15.152C72.709,15.437 72.311,15.863 72.041,16.432C71.771,16.987 71.635,17.677 71.635,18.502C71.635,19.284 71.799,19.966 72.126,20.549C72.453,21.118 72.916,21.559 73.513,21.872C74.11,22.185 74.8,22.342 75.582,22.342C76.137,22.342 76.649,22.249 77.118,22.064C77.602,21.879 78.121,21.545 78.676,21.062L79.785,22.619C79.444,22.96 79.024,23.259 78.526,23.515C78.043,23.771 77.524,23.977 76.969,24.134C76.428,24.276 75.895,24.347 75.369,24.347ZM82.642,24.134L82.642,12.934L84.84,12.934L84.84,15.238L84.456,15.493C84.598,14.996 84.875,14.541 85.287,14.128C85.7,13.701 86.191,13.36 86.76,13.104C87.328,12.834 87.912,12.699 88.509,12.699C89.362,12.699 90.073,12.87 90.642,13.211C91.211,13.538 91.638,14.043 91.922,14.726C92.207,15.408 92.349,16.269 92.349,17.307L92.349,24.134L90.152,24.134L90.152,17.456C90.152,16.816 90.066,16.29 89.896,15.878C89.725,15.451 89.462,15.145 89.106,14.96C88.751,14.761 88.31,14.676 87.784,14.704C87.357,14.704 86.966,14.775 86.61,14.918C86.255,15.046 85.942,15.23 85.672,15.472C85.415,15.714 85.209,15.998 85.053,16.326C84.911,16.638 84.84,16.98 84.84,17.35L84.84,24.134L82.642,24.134ZM95.884,24.134L95.884,9.2L105.292,9.2L105.292,11.419L98.188,11.419L98.188,21.915L105.292,21.915L105.292,24.134L95.884,24.134ZM96.93,17.584L96.93,15.366L104.119,15.366L104.119,17.584L96.93,17.584ZM108.391,24.134L108.391,12.934L110.61,12.934L110.61,15.323L110.205,15.579C110.318,15.209 110.496,14.854 110.738,14.512C110.994,14.171 111.3,13.872 111.655,13.616C112.025,13.346 112.416,13.133 112.829,12.976C113.255,12.82 113.689,12.742 114.13,12.742C114.77,12.742 115.332,12.848 115.815,13.062C116.299,13.275 116.697,13.595 117.01,14.022C117.323,14.448 117.55,14.982 117.693,15.621L117.351,15.536L117.501,15.174C117.657,14.846 117.87,14.541 118.141,14.256C118.425,13.958 118.745,13.694 119.101,13.467C119.456,13.239 119.833,13.062 120.231,12.934C120.629,12.806 121.021,12.742 121.405,12.742C122.244,12.742 122.933,12.912 123.474,13.254C124.029,13.595 124.441,14.114 124.711,14.811C124.996,15.508 125.138,16.375 125.138,17.414L125.138,24.134L122.919,24.134L122.919,17.542C122.919,16.902 122.834,16.382 122.663,15.984C122.507,15.572 122.265,15.266 121.938,15.067C121.611,14.868 121.191,14.768 120.679,14.768C120.281,14.768 119.904,14.839 119.549,14.982C119.207,15.11 118.909,15.294 118.653,15.536C118.397,15.778 118.197,16.062 118.055,16.39C117.913,16.702 117.842,17.051 117.842,17.435L117.842,24.134L115.623,24.134L115.623,17.499C115.623,16.916 115.538,16.425 115.367,16.027C115.197,15.614 114.948,15.302 114.621,15.088C114.293,14.875 113.895,14.768 113.426,14.768C113.028,14.768 112.658,14.839 112.317,14.982C111.975,15.11 111.677,15.294 111.421,15.536C111.165,15.764 110.965,16.041 110.823,16.368C110.681,16.681 110.61,17.022 110.61,17.392L110.61,24.134L108.391,24.134ZM132.389,24.347C131.465,24.347 130.618,24.091 129.85,23.579C129.097,23.067 128.492,22.37 128.037,21.488C127.582,20.606 127.354,19.611 127.354,18.502C127.354,17.378 127.582,16.382 128.037,15.515C128.506,14.633 129.132,13.943 129.914,13.445C130.711,12.948 131.6,12.699 132.581,12.699C133.164,12.699 133.697,12.784 134.181,12.955C134.665,13.126 135.084,13.367 135.44,13.68C135.809,13.979 136.108,14.327 136.336,14.726C136.577,15.124 136.727,15.55 136.784,16.006L136.293,15.835L136.293,12.934L138.512,12.934L138.512,24.134L136.293,24.134L136.293,21.467L136.805,21.318C136.72,21.702 136.542,22.078 136.272,22.448C136.016,22.804 135.681,23.124 135.269,23.408C134.871,23.693 134.423,23.92 133.925,24.091C133.441,24.262 132.929,24.347 132.389,24.347ZM132.965,22.32C133.633,22.32 134.224,22.157 134.736,21.83C135.248,21.502 135.646,21.054 135.93,20.485C136.229,19.902 136.378,19.241 136.378,18.502C136.378,17.776 136.229,17.129 135.93,16.56C135.646,15.991 135.248,15.543 134.736,15.216C134.224,14.889 133.633,14.726 132.965,14.726C132.311,14.726 131.728,14.889 131.216,15.216C130.718,15.543 130.32,15.991 130.021,16.56C129.737,17.129 129.594,17.776 129.594,18.502C129.594,19.241 129.737,19.902 130.021,20.485C130.32,21.054 130.718,21.502 131.216,21.83C131.728,22.157 132.311,22.32 132.965,22.32ZM141.942,24.134L141.942,12.934L144.14,12.934L144.14,24.134L141.942,24.134ZM143.009,10.459C142.54,10.459 142.177,10.338 141.921,10.096C141.665,9.854 141.537,9.513 141.537,9.072C141.537,8.66 141.665,8.326 141.921,8.07C142.191,7.814 142.554,7.686 143.009,7.686C143.478,7.686 143.841,7.806 144.097,8.048C144.353,8.29 144.481,8.631 144.481,9.072C144.481,9.485 144.346,9.819 144.076,10.075C143.82,10.331 143.464,10.459 143.009,10.459ZM147.56,24.134L147.56,8.347L149.757,8.347L149.757,24.134L147.56,24.134Z" style="fill:rgb(19,27,42);fill-rule:nonzero;"/>
    </g>
</svg>
