<svg width="40" height="40" viewBox="0 0 40 40" fill="none" xmlns="http://www.w3.org/2000/svg">
<path fill-rule="evenodd" clip-rule="evenodd" d="M26.8847 2.0269C23.2337 0.601837 19.2377 0.311894 15.4192 1.195C11.6008 2.0781 8.13786 4.09313 5.48334 6.97648C2.82882 9.85983 1.10637 13.4772 0.541311 17.3555C-0.0237499 21.2338 0.594891 25.1923 2.31631 28.7132C4.03772 32.2341 6.78175 35.1535 10.1894 37.0894C13.5971 39.0254 17.5098 39.8877 21.4156 39.5637L23.0369 39.4292V34.6124L21.0187 34.7798C18.0759 35.0239 15.1281 34.3742 12.5606 32.9156C9.99319 31.4571 7.92577 29.2575 6.62881 26.6048C5.33186 23.952 4.86576 20.9696 5.29149 18.0476C5.71722 15.1256 7.01496 12.4002 9.01494 10.2278C11.0149 8.0554 13.624 6.53723 16.5009 5.87188C19.3778 5.20653 22.3885 5.42498 25.1392 6.49865C27.8899 7.57233 30.2525 9.45123 31.918 11.8896C33.5834 14.3279 34.4741 17.2121 34.4736 20.165L34.4732 22.5651H34.4737V27.7052C34.4737 28.9571 33.4588 29.972 32.2069 29.972C30.955 29.972 29.9401 28.9571 29.9401 27.7052V20.0291H29.9392C29.8679 14.4936 25.3584 10.0283 19.806 10.0283C14.2092 10.0283 9.67202 14.5655 9.67202 20.1624C9.67202 25.7592 14.2092 30.2964 19.806 30.2964C21.7945 30.2964 23.6492 29.7237 25.2141 28.7343C25.7124 32.1496 28.6534 34.7723 32.2069 34.7723C36.11 34.7723 39.2741 31.6083 39.2741 27.7052V20.0291H39.2735C39.247 16.1576 38.0667 12.3808 35.8819 9.18212C33.6714 5.94577 30.5356 3.45195 26.8847 2.0269ZM21.267 20.4881C22.186 19.9732 22.8071 18.9899 22.8071 17.8616C22.8071 16.1999 21.4601 14.8529 19.7984 14.8529C18.1368 14.8529 16.7898 16.1999 16.7898 17.8616C16.7898 18.9775 17.3973 19.9515 18.2996 20.4709L16.4618 25.4718H23.0986L21.267 20.4881Z" fill="#1E76F2"/>
</svg>
